<svg xmlns="http://www.w3.org/2000/svg" xmlns:xlink="http://www.w3.org/1999/xlink" width="1080" zoomAndPan="magnify" viewBox="0 0 810 809.999993" height="1080" preserveAspectRatio="xMidYMid meet" version="1.0"><defs><g/></defs><g fill="#000000" fill-opacity="1"><g transform="translate(23.047029, 444.89345)"><g><path d="M 27.515625 -81.859375 C 35.296875 -81.859375 41.09375 -79.800781 44.90625 -75.6875 C 48.726562 -71.570312 50.640625 -66.253906 50.640625 -59.734375 L 50.640625 -47.953125 L 29.984375 -47.953125 L 29.984375 -63.671875 C 29.984375 -65.242188 29.71875 -66.421875 29.1875 -67.203125 C 28.664062 -67.992188 27.695312 -68.390625 26.28125 -68.390625 C 25.082031 -68.390625 24.257812 -67.863281 23.8125 -66.8125 C 23.363281 -65.769531 23.140625 -64.648438 23.140625 -63.453125 L 23.140625 -16.734375 C 23.140625 -15.535156 23.363281 -14.410156 23.8125 -13.359375 C 24.257812 -12.316406 25.082031 -11.796875 26.28125 -11.796875 C 27.695312 -11.796875 28.664062 -12.242188 29.1875 -13.140625 C 29.71875 -14.035156 29.984375 -15.421875 29.984375 -17.296875 L 29.984375 -34.59375 L 50.640625 -34.59375 L 50.640625 -20.890625 C 50.640625 -16.765625 49.78125 -12.976562 48.0625 -9.53125 C 46.34375 -6.09375 43.703125 -3.363281 40.140625 -1.34375 C 36.585938 0.675781 32.226562 1.6875 27.0625 1.6875 C 19.050781 1.6875 12.945312 -0.21875 8.75 -4.03125 C 4.5625 -7.851562 2.46875 -14.035156 2.46875 -22.578125 L 2.46875 -57.609375 C 2.46875 -65.546875 4.597656 -71.570312 8.859375 -75.6875 C 13.128906 -79.800781 19.347656 -81.859375 27.515625 -81.859375 Z M 27.515625 -81.859375 "/></g></g></g><g fill="#000000" fill-opacity="1"><g transform="translate(80.650905, 444.89345)"><g><path d="M 48.734375 -64.34375 L 48.734375 -56.265625 C 48.734375 -51.847656 47.722656 -48.535156 45.703125 -46.328125 C 43.679688 -44.117188 40.648438 -42.863281 36.609375 -42.5625 L 36.609375 -42.328125 C 41.023438 -42.035156 44.28125 -40.765625 46.375 -38.515625 C 48.46875 -36.273438 49.515625 -32.941406 49.515625 -28.515625 L 49.515625 0 L 30.203125 0 L 30.203125 -30.765625 C 30.203125 -35.179688 28.40625 -37.390625 24.8125 -37.390625 C 23.988281 -37.390625 23.203125 -37.28125 22.453125 -37.0625 L 22.453125 0 L 2.46875 0 L 2.46875 -80.1875 L 26.609375 -80.1875 C 31.398438 -80.1875 35.332031 -79.828125 38.40625 -79.109375 C 41.476562 -78.398438 43.96875 -76.90625 45.875 -74.625 C 47.78125 -72.34375 48.734375 -68.914062 48.734375 -64.34375 Z M 23.921875 -49.515625 C 26.316406 -49.515625 27.960938 -50.054688 28.859375 -51.140625 C 29.753906 -52.234375 30.203125 -53.488281 30.203125 -54.90625 L 30.203125 -61.984375 C 30.203125 -63.335938 29.753906 -64.570312 28.859375 -65.6875 C 27.960938 -66.8125 26.351562 -67.375 24.03125 -67.375 L 22.453125 -67.375 L 22.453125 -49.515625 Z M 23.921875 -49.515625 "/></g></g></g><g fill="#000000" fill-opacity="1"><g transform="translate(138.25478, 444.89345)"><g><path d="M 37.390625 -64.015625 L 23.140625 -64.015625 L 23.140625 -49.296875 L 36.5 -49.296875 L 36.5 -33.796875 L 23.140625 -33.796875 L 23.140625 -16.171875 L 38.515625 -16.171875 L 38.515625 0 L 2.46875 0 L 2.46875 -80.1875 L 37.390625 -80.1875 Z M 37.390625 -64.015625 "/></g></g></g><g fill="#000000" fill-opacity="1"><g transform="translate(183.394788, 444.89345)"><g><path d="M 51.4375 0 L 30.765625 0 L 29.765625 -14.15625 L 22.234375 -14.15625 L 21.21875 0 L 0.5625 0 L 10.671875 -80.1875 L 40.421875 -80.1875 Z M 22.234375 -28.296875 L 29.421875 -28.296875 L 25.828125 -66.03125 L 25.609375 -66.03125 Z M 22.234375 -28.296875 "/></g></g></g><g fill="#000000" fill-opacity="1"><g transform="translate(273.562502, 444.89345)"><g><path d="M 45.375 -64.015625 L 33.125 -64.015625 L 33.125 0 L 12.46875 0 L 12.46875 -64.015625 L 0.21875 -64.015625 L 0.21875 -80.1875 L 45.375 -80.1875 Z M 45.375 -64.015625 "/></g></g></g><g fill="#000000" fill-opacity="1"><g transform="translate(324.766007, 444.89345)"><g><path d="M 23.140625 -18.53125 C 23.140625 -16.0625 23.507812 -14.429688 24.25 -13.640625 C 25 -12.859375 25.9375 -12.46875 27.0625 -12.46875 C 28.1875 -12.46875 29.125 -12.859375 29.875 -13.640625 C 30.625 -14.429688 31 -16.0625 31 -18.53125 L 31 -80.1875 L 51.65625 -80.1875 L 51.65625 -21.453125 C 51.65625 -6.023438 43.457031 1.6875 27.0625 1.6875 C 10.664062 1.6875 2.46875 -6.023438 2.46875 -21.453125 L 2.46875 -80.1875 L 23.140625 -80.1875 Z M 23.140625 -18.53125 "/></g></g></g><g fill="#000000" fill-opacity="1"><g transform="translate(384.506227, 444.89345)"><g/></g></g><g fill="#000000" fill-opacity="1"><g transform="translate(417.070063, 444.89345)"><g/></g></g><g fill="#000000" fill-opacity="1"><g transform="translate(449.633899, 444.89345)"><g/></g></g><g fill="#000000" fill-opacity="1"><g transform="translate(482.201041, 444.89345)"><g><path d="M 37.390625 -64.015625 L 23.140625 -64.015625 L 23.140625 -49.296875 L 36.5 -49.296875 L 36.5 -33.796875 L 23.140625 -33.796875 L 23.140625 -16.171875 L 38.515625 -16.171875 L 38.515625 0 L 2.46875 0 L 2.46875 -80.1875 L 37.390625 -80.1875 Z M 37.390625 -64.015625 "/></g></g></g><g fill="#000000" fill-opacity="1"><g transform="translate(527.34104, 444.89345)"><g><path d="M 27.0625 -81.859375 C 35.070312 -81.859375 41.171875 -79.945312 45.359375 -76.125 C 49.554688 -72.3125 51.65625 -66.140625 51.65625 -57.609375 L 51.65625 -24.484375 C 51.65625 -20.066406 51.28125 -16.566406 50.53125 -13.984375 C 49.78125 -11.398438 48.523438 -9.414062 46.765625 -8.03125 C 45.003906 -6.644531 42.554688 -5.613281 39.421875 -4.9375 C 39.335938 -3.363281 39.539062 -2.222656 40.03125 -1.515625 C 40.519531 -0.804688 41.585938 -0.453125 43.234375 -0.453125 L 52.78125 -0.453125 L 52.78125 9.65625 L 33.359375 9.65625 C 29.679688 9.65625 26.941406 8.925781 25.140625 7.46875 C 23.347656 6.007812 22.453125 3.96875 22.453125 1.34375 L 22.453125 0.34375 L 21 0.34375 C 14.5625 0.34375 9.863281 -1.921875 6.90625 -6.453125 C 3.945312 -10.984375 2.46875 -16.394531 2.46875 -22.6875 L 2.46875 -57.609375 C 2.46875 -66.066406 4.546875 -72.222656 8.703125 -76.078125 C 12.859375 -79.929688 18.976562 -81.859375 27.0625 -81.859375 Z M 23.140625 -63.453125 L 23.140625 -16.734375 C 23.140625 -15.160156 23.472656 -13.941406 24.140625 -13.078125 C 24.816406 -12.222656 25.789062 -11.796875 27.0625 -11.796875 C 28.332031 -11.796875 29.304688 -12.222656 29.984375 -13.078125 C 30.660156 -13.941406 31 -15.160156 31 -16.734375 L 31 -63.453125 C 31 -65.023438 30.660156 -66.238281 29.984375 -67.09375 C 29.304688 -67.957031 28.332031 -68.390625 27.0625 -68.390625 C 24.445312 -68.390625 23.140625 -66.742188 23.140625 -63.453125 Z M 23.140625 -63.453125 "/></g></g></g><g fill="#000000" fill-opacity="1"><g transform="translate(587.078377, 444.89345)"><g><path d="M 23.140625 -18.53125 C 23.140625 -16.0625 23.507812 -14.429688 24.25 -13.640625 C 25 -12.859375 25.9375 -12.46875 27.0625 -12.46875 C 28.1875 -12.46875 29.125 -12.859375 29.875 -13.640625 C 30.625 -14.429688 31 -16.0625 31 -18.53125 L 31 -80.1875 L 51.65625 -80.1875 L 51.65625 -21.453125 C 51.65625 -6.023438 43.457031 1.6875 27.0625 1.6875 C 10.664062 1.6875 2.46875 -6.023438 2.46875 -21.453125 L 2.46875 -80.1875 L 23.140625 -80.1875 Z M 23.140625 -18.53125 "/></g></g></g><g fill="#000000" fill-opacity="1"><g transform="translate(646.815723, 444.89345)"><g><path d="M 22.796875 0 L 2.140625 0 L 2.140625 -80.1875 L 22.796875 -80.1875 Z M 22.796875 0 "/></g></g></g><g fill="#000000" fill-opacity="1"><g transform="translate(677.358393, 444.89345)"><g><path d="M 48.515625 -62.328125 L 48.515625 -51.4375 C 48.515625 -45.070312 47.050781 -40.351562 44.125 -37.28125 C 41.207031 -34.207031 37.128906 -32.671875 31.890625 -32.671875 L 22.453125 -32.671875 L 22.453125 0 L 2.46875 0 L 2.46875 -80.1875 L 29.984375 -80.1875 C 35.898438 -80.1875 40.46875 -78.628906 43.6875 -75.515625 C 46.90625 -72.410156 48.515625 -68.015625 48.515625 -62.328125 Z M 31 -50.765625 L 31 -62.09375 C 31 -65.164062 29.425781 -66.703125 26.28125 -66.703125 L 22.453125 -66.703125 L 22.453125 -46.15625 L 26.28125 -46.15625 C 29.425781 -46.15625 31 -47.691406 31 -50.765625 Z M 31 -50.765625 "/></g></g></g><g fill="#000000" fill-opacity="1"><g transform="translate(732.828818, 444.89345)"><g><path d="M 27.0625 -81.859375 C 35.070312 -81.859375 41.171875 -79.945312 45.359375 -76.125 C 49.554688 -72.3125 51.65625 -66.140625 51.65625 -57.609375 L 51.65625 -22.578125 C 51.65625 -14.109375 49.578125 -7.945312 45.421875 -4.09375 C 41.265625 -0.238281 35.144531 1.6875 27.0625 1.6875 C 18.976562 1.6875 12.859375 -0.203125 8.703125 -3.984375 C 4.546875 -7.765625 2.46875 -13.960938 2.46875 -22.578125 L 2.46875 -57.609375 C 2.46875 -66.066406 4.546875 -72.222656 8.703125 -76.078125 C 12.859375 -79.929688 18.976562 -81.859375 27.0625 -81.859375 Z M 23.140625 -63.453125 L 23.140625 -16.734375 C 23.140625 -15.160156 23.472656 -13.941406 24.140625 -13.078125 C 24.816406 -12.222656 25.789062 -11.796875 27.0625 -11.796875 C 28.332031 -11.796875 29.304688 -12.222656 29.984375 -13.078125 C 30.660156 -13.941406 31 -15.160156 31 -16.734375 L 31 -63.453125 C 31 -65.023438 30.660156 -66.238281 29.984375 -67.09375 C 29.304688 -67.957031 28.332031 -68.390625 27.0625 -68.390625 C 24.445312 -68.390625 23.140625 -66.742188 23.140625 -63.453125 Z M 23.140625 -63.453125 "/></g></g></g><g fill="#000000" fill-opacity="1"><g transform="translate(387.667952, 450.234989)"><g><path d="M 50.40625 -70.84375 L 50.40625 -43.8125 L 77.421875 -43.8125 L 77.421875 -27.015625 L 50.40625 -27.015625 L 50.40625 0 L 33.59375 0 L 33.59375 -27.015625 L 6.578125 -27.015625 L 6.578125 -43.8125 L 33.59375 -43.8125 L 33.59375 -70.84375 Z M 50.40625 -70.84375 "/></g></g></g></svg>